HIERARCHY
ROOT hip
{
	OFFSET 0.000000 0.000000 0.000000
	CHANNELS 6 Xposition Yposition Zposition Zrotation Yrotation Xrotation 
	JOINT lhipjoint
	{
		OFFSET 0.000000 0.000000 0.000000
		CHANNELS 3 Zrotation Yrotation Xrotation
		JOINT lfemur
		{
			OFFSET 1.363060 -1.794630 0.839290
			CHANNELS 3 Zrotation Yrotation Xrotation
			JOINT ltibia
			{
				OFFSET 2.448110 -6.726130 0.000000
				CHANNELS 3 Zrotation Yrotation Xrotation
				JOINT lfoot
				{
					OFFSET 2.562200 -7.039590 0.000000
					CHANNELS 3 Zrotation Yrotation Xrotation
					JOINT ltoes
					{
						OFFSET 0.157640 -0.433110 2.322550
						CHANNELS 3 Zrotation Yrotation Xrotation
						End Site
						{
							OFFSET 0.000000 0.000000 0.000000
						}
					}
				}
			}
		}
	}
	JOINT rhipjoint
	{
		OFFSET 0.000000 0.000000 0.000000
		CHANNELS 3 Zrotation Yrotation Xrotation
		JOINT rfemur
		{
			OFFSET -1.305520 -1.794630 0.839290
			CHANNELS 3 Zrotation Yrotation Xrotation
			JOINT rtibia
			{
				OFFSET -2.542530 -6.985550 0.000000
				CHANNELS 3 Zrotation Yrotation Xrotation
				JOINT rfoot
				{
					OFFSET -2.568260 -7.056230 0.000000
					CHANNELS 3 Zrotation Yrotation Xrotation
					JOINT rtoes
					{
						OFFSET -0.164730 -0.452590 2.363150
						CHANNELS 3 Zrotation Yrotation Xrotation
						End Site
						{
							OFFSET 0.000000 0.000000 0.000000
						}
					}
				}
			}
		}
	}
	JOINT lowerback
	{
		OFFSET 0.000000 0.000000 0.000000
		CHANNELS 3 Zrotation Yrotation Xrotation
		JOINT upperback
		{
			OFFSET 0.028270 2.035590 -0.193380
			CHANNELS 3 Zrotation Yrotation Xrotation
			JOINT thorax
			{
				OFFSET 0.056720 2.048850 -0.042750
				CHANNELS 3 Zrotation Yrotation Xrotation
				JOINT lowerneck
				{
					OFFSET 0.000000 0.000000 0.000000
					CHANNELS 3 Zrotation Yrotation Xrotation
					JOINT upperneck
					{
						OFFSET -0.054170 1.746240 0.172020
						CHANNELS 3 Zrotation Yrotation Xrotation
						JOINT head
						{
							OFFSET 0.104070 1.761360 -0.123970
							CHANNELS 3 Zrotation Yrotation Xrotation
							End Site
							{
								OFFSET 0.000000 0.000000 0.000000
							}
						}
					}
				}
				JOINT lclavicle
				{
					OFFSET 0.000000 0.000000 0.000000
					CHANNELS 3 Zrotation Yrotation Xrotation
					JOINT lhumerus
					{
						OFFSET 3.362410 1.200890 -0.311210
						CHANNELS 3 Zrotation Yrotation Xrotation
						JOINT lradius
						{
							OFFSET 4.983000 -0.000000 -0.000000
							CHANNELS 3 Zrotation Yrotation Xrotation
							JOINT lwrist
							{
								OFFSET 3.483560 -0.000000 -0.000000
								CHANNELS 3 Zrotation Yrotation Xrotation
								JOINT lhand
								{
									OFFSET 0.000000 0.000000 0.000000
									CHANNELS 3 Zrotation Yrotation Xrotation
									JOINT lfingers
									{
										OFFSET 0.715260 -0.000000 -0.000000
										CHANNELS 3 Zrotation Yrotation Xrotation
										End Site
										{
											OFFSET 0.000000 0.000000 0.000000
										}
									}
								}
								JOINT lthumb
								{
									OFFSET 0.000000 0.000000 0.000000
									CHANNELS 3 Zrotation Yrotation Xrotation
									End Site
									{
										OFFSET 0.000000 0.000000 0.000000
									}
								}
							}
						}
					}
				}
				JOINT rclavicle
				{
					OFFSET 0.000000 0.000000 0.000000
					CHANNELS 3 Zrotation Yrotation Xrotation
					JOINT rhumerus
					{
						OFFSET -3.136600 1.374050 -0.404650
						CHANNELS 3 Zrotation Yrotation Xrotation
						JOINT rradius
						{
							OFFSET -5.241900 -0.000000 -0.000000
							CHANNELS 3 Zrotation Yrotation Xrotation
							JOINT rwrist
							{
								OFFSET -3.444170 -0.000000 -0.000000
								CHANNELS 3 Zrotation Yrotation Xrotation
								JOINT rhand
								{
									OFFSET 0.000000 0.000000 0.000000
									CHANNELS 3 Zrotation Yrotation Xrotation
									JOINT rfingers
									{
										OFFSET -0.622530 -0.000000 -0.000000
										CHANNELS 3 Zrotation Yrotation Xrotation
										End Site
										{
											OFFSET 0.000000 0.000000 0.000000
										}
									}
								}
								JOINT rthumb
								{
									OFFSET 0.000000 0.000000 0.000000
									CHANNELS 3 Zrotation Yrotation Xrotation
									End Site
									{
										OFFSET 0.000000 0.000000 0.000000
									}
								}
							}
						}
					}
				}
			}
		}
	}
}
MOTION
Frames: 4
Frame Time: 0.008333
-1.021556 18.903656 -9.400120 169.091321 -57.379703 -177.163911 -1.645026 2.806790 1.950933 -8.078394 3.812172 -1.843696 2.511582 9.208353 28.181936 2.122343 2.195273 29.506216 5.489500 -13.914700 -42.896700 0.528739 -3.918165 1.681206 11.821655 4.147376 -4.872846 -3.054477 -9.471504 30.293031 3.330822 -15.440024 -3.054165 -0.000900 -0.197900 0.543600 -3.337049 -4.439161 9.996740 1.373994 -6.555807 -4.484802 6.230567 -2.525345 -3.662918 -10.027711 -17.323150 5.991459 1.377087 -22.310556 -0.647188 5.857100 -9.911200 -0.918200 -2.331573 3.582702 -0.013214 104.966794 -59.611738 -128.646757 28.512356 -41.200713 -8.717057 1.438203 0.859446 144.253971 8.979137 25.928948 4.656700 -7.125000 0.000000 0.000000 -20.257300 54.853000 -5.056600 4.175641 0.806710 0.525597 -22.879398 25.267829 -31.186757 -72.778931 64.101007 -39.506680 1.378745 -0.669772 -144.762386 -14.567964 13.243470 -3.119500 7.125000 0.000000 0.000000 9.822300 -16.172300 6.799600 
-0.993370 18.874650 -9.418671 169.255162 -57.527127 -177.358525 -1.643458 2.801776 1.943448 -7.901580 3.853460 -2.006394 2.560420 9.312400 28.497401 2.066242 2.187451 29.111042 5.492200 -13.917500 -42.907900 0.525336 -3.912805 1.666973 12.198439 4.408842 -4.624234 -3.063607 -9.456884 30.336638 3.393805 -15.696610 -4.056187 -0.003600 -0.389900 1.071300 -3.254967 -4.426275 9.994978 1.392381 -6.524082 -4.445285 6.215623 -2.518226 -3.522010 -9.938667 -17.337769 6.118926 1.443120 -22.341564 -0.725662 5.893100 -9.912400 -1.010500 -2.288961 3.579831 -0.011252 104.934361 -60.236997 -128.115315 29.257937 -41.798813 -9.039165 1.420194 0.900606 143.308747 8.765225 25.438222 4.487100 -7.125000 0.000000 0.000000 -20.187900 54.374300 -4.798400 4.153886 0.832557 0.576690 -21.568792 24.406821 -29.588609 -77.351439 64.163154 -42.848728 1.430305 -0.564422 -145.174857 -14.199631 13.184333 -3.042700 7.125000 0.000000 0.000000 10.061700 -16.152100 6.975100 
-0.964160 18.846874 -9.437120 169.473085 -57.694108 -177.609601 -1.639960 2.796361 1.937950 -7.681892 3.882098 -2.179481 2.607739 9.417917 28.815404 2.018261 2.133392 28.726013 5.508000 -13.934000 -42.973800 0.521805 -3.908433 1.653164 12.621257 4.688503 -4.338359 -3.070062 -9.434319 30.363153 3.456289 -15.974236 -5.090553 -0.010800 -0.671400 1.845100 -3.136931 -4.415276 10.010594 1.409465 -6.491902 -4.408574 6.179781 -2.513622 -3.378981 -9.851241 -17.365904 6.238820 1.514802 -22.389610 -0.802607 5.931900 -9.923600 -1.097900 -2.254968 3.590683 -0.028411 105.045713 -60.914376 -127.760625 30.030788 -42.412310 -9.384119 1.408695 0.934240 142.422553 8.715156 25.000927 4.398500 -7.125000 0.000000 0.000000 -19.985900 53.966000 -4.544500 4.134933 0.831128 0.700441 -20.156506 23.597164 -27.978628 -82.057240 63.888379 -46.391138 1.473897 -0.468830 -145.458054 -13.804703 13.085215 -2.948400 7.125000 0.000000 0.000000 10.319500 -16.183700 7.152600 
-0.936589 18.820123 -9.453417 169.688667 -57.867761 -177.847010 -1.636292 2.791288 1.930970 -7.469331 3.901843 -2.363409 2.655318 9.522951 29.130069 1.971994 2.094963 28.356923 5.508800 -13.934900 -42.977100 0.517732 -3.902129 1.637485 13.027759 4.947258 -4.073934 -3.074142 -9.409347 30.379346 3.511421 -16.248012 -6.131724 -0.020000 -0.912200 2.507200 -3.016984 -4.415605 10.005244 1.428491 -6.472611 -4.367477 6.139783 -2.522371 -3.176506 -9.725477 -17.389727 6.300865 1.595333 -22.422351 -0.910643 5.966600 -9.923400 -1.201400 -2.222447 3.618206 -0.062820 105.076928 -61.591104 -127.281295 30.846214 -43.063549 -9.765271 1.404289 0.962318 141.440379 8.839831 24.676155 4.401600 -7.125000 0.000000 0.000000 -19.669900 53.680300 -4.328400 4.121839 0.806649 0.895585 -18.715188 22.806760 -26.331943 -86.753269 63.297021 -50.107545 1.499534 -0.379981 -145.663483 -13.558373 12.865504 -2.865600 7.125000 0.000000 0.000000 10.470900 -16.339200 7.225200 
